<svg id="Capa_1" enable-background="new 0 0 512 512" height="512" viewBox="0 0 512 512" width="512" xmlns="http://www.w3.org/2000/svg"><g><path d="m511.887 177.5c.354-2.337-.175-4.815-1.388-6.77l-60.499-97.579v-63.151c0-5.523-4.477-10-10-10h-368c-5.523 0-10 4.477-10 10v63.151l-60.499 97.579c-1.196 1.927-1.752 4.368-1.388 6.77 2.283 15.045 13.719 42.096 40.887 47.522v226.978h-11c-16.542 0-30 13.458-30 30v20c0 5.523 4.477 10 10 10h201c5.523 0 10-4.477 10-10s-4.477-10-10-10h-191v-10c0-5.514 4.486-10 10-10h452c5.514 0 10 4.486 10 10v10h-191c-5.523 0-10 4.477-10 10s4.477 10 10 10h201c5.523 0 10-4.477 10-10v-20c0-16.542-13.458-30-30-30h-11v-226.978c27.168-5.426 38.604-32.477 40.887-47.522zm-27.853-11.5h-57.264l-32-80h39.664zm-297.716 0 16.8-80h42.882v80zm56.23 20c-3.98 9.014-12.011 20-27.547 20-15.541 0-23.573-10.993-27.55-20zm-27.548 40c19.99 0 33.052-10.697 41-22.95 7.948 12.253 21.01 22.95 41 22.95 20.215 0 33.349-10.938 41.27-23.364 8.185 12.412 21.55 23.364 41.73 23.364 3.463 0 6.798-.331 10-.972v146.972h-32.027c6.292-8.363 10.027-18.753 10.027-30 0-15.784-7.537-30.625-20-40.001v-45.999c0-5.523-4.477-10-10-10h-41c-5.523 0-10 4.477-10 10v45.959c-13.082 9.617-21 24.494-21 40.041 0 11.146 4.034 21.576 10.737 30h-30.737v-50c0-5.523-4.477-10-10-10h-31v-30c0-5.523-4.477-10-10-10h-42c-5.523 0-10 4.477-10 10v90h-21v-147.173c3.512.777 7.182 1.173 11 1.173 19.98 0 33.051-10.685 41-22.931 7.949 12.246 21.02 22.931 41 22.931zm51-60v-80h43.802l16 80zm58.548 20c-3.98 9.014-12.011 20-27.547 20-15.537 0-23.568-10.986-27.547-20zm21.65-20-16-80h43.032l32 80zm60.647 20c-5.087 12.388-13.559 20-26.845 20-15.575 0-23.941-10.947-28.201-20zm-73.853 130.006c9.257 5.356 15.008 15.316 15.008 25.994 0 16.542-13.458 30-30 30-17.047 0-32-14.019-32-30 0-10.321 6.134-20.281 16.008-25.994 3.09-1.788 4.992-5.086 4.992-8.656v-41.35h21v41.35c0 3.569 1.902 6.868 4.992 8.656zm-106.992 15.994v40h-63v-40zm-63-20v-20h22v20zm2.882-146h-58.974l32.8-80h42.974zm-5.334 20c-3.98 9.014-12.011 20-27.547 20-13.514 0-22.15-7.877-27.492-20zm249.452 206v20h-308v-20zm-328-372h348v46c-.1 0-356.408 0-348 0zm-4.434 66h40.526l-32.8 80h-57.326zm-54.118 99.99h55.099c-3.979 9.024-12.011 20.01-27.547 20.01-15.541 0-23.575-10.994-27.552-20.01zm427.552 266.01h-390v-226.978c14.472-2.89 24.478-11.908 31.013-21.992 2.621 4.107 5.906 8.16 9.987 11.704v157.266h-10c-5.523 0-10 4.477-10 10v40c0 5.523 4.477 10 10 10h328c5.523 0 10-4.477 10-10v-40c0-5.523-4.477-10-10-10h-10v-156.597c4.236-3.577 7.607-7.724 10.265-11.949 6.54 9.912 16.467 18.717 30.735 21.567zm10-246c-15.541 0-23.573-10.993-27.55-20.01h55.099c-3.979 9.023-12.013 20.01-27.549 20.01z"/><circle cx="256" cy="502" r="10"/></g></svg>