<?xml version="1.0" encoding="UTF-8" standalone="no"?>
<!-- Created with Inkscape (http://www.inkscape.org/) -->
<svg
   xmlns:svg="http://www.w3.org/2000/svg"
   xmlns="http://www.w3.org/2000/svg"
   version="1.0"
   width="602.36218"
   height="176.03149"
   id="svg2124">
  <defs
     id="defs2126" />
  <g
     id="layer1">
    <g
       transform="matrix(3.543307e-5,0,0,3.543307e-5,-3.691406e-6,7.087804e-3)"
       style="fill-rule:evenodd"
       id="Layer_x0020_1">
  
  <g
   id="_110861608">
   <path
   d="M 3051060,3687330 L 3174320,3687330 L 3320170,4289720 L 3323410,4289720 L 3490130,3687330 L 3589440,3687330 L 3765720,4284920 L 3768840,4284920 L 3905090,3687330 L 4013960,3687330 L 3831330,4449960 L 3715940,4449960 L 3538110,3865200 L 3534990,3865200 L 3368270,4449960 L 3252890,4449960 L 3051060,3687330 z M 4449790,3687330 L 4568380,3687330 L 4568380,4450040 L 4449790,4450040 L 4449790,3687330 z M 4441920,3344330 L 4576450,3344330 L 4576450,3488620 L 4441920,3488620 L 4441920,3344330 z M 5420890,3810590 C 5395220,3796230 5316660,3749820 5226940,3749820 C 5158140,3749820 5095650,3778600 5095650,3841050 C 5095650,3932450 5206230,3958120 5339210,4038240 C 5412850,4081420 5470550,4134310 5470550,4241620 C 5470550,4360250 5385630,4467600 5185360,4467600 C 5081130,4467600 5015520,4449960 4978580,4435570 L 4978580,4315390 C 4994650,4324980 5092410,4387470 5191680,4387470 C 5279840,4387470 5351920,4350650 5351920,4264210 C 5351920,4187210 5278280,4156740 5188600,4103970 C 5092410,4047830 4981820,4007770 4981820,3877880 C 4981820,3746580 5069980,3669700 5243020,3669700 C 5323140,3669700 5390420,3690450 5420890,3696920 L 5420890,3810590 z M 6185210,3810590 C 6159540,3796230 6080980,3749820 5991260,3749820 C 5922450,3749820 5859960,3778600 5859960,3841050 C 5859960,3932450 5970550,3958120 6103400,4038240 C 6177170,4081420 6234860,4134310 6234860,4241620 C 6234860,4360250 6149940,4467600 5949680,4467600 C 5845450,4467600 5779840,4449960 5742900,4435570 L 5742900,4315390 C 5758970,4324980 5856720,4387470 5955990,4387470 C 6044150,4387470 6116240,4350650 6116240,4264210 C 6116240,4187210 6042590,4156740 5952760,4103970 C 5856720,4047830 5746130,4007770 5746130,3877880 C 5746130,3746580 5834290,3669700 6007330,3669700 C 6087450,3669700 6154740,3690450 6185210,3696920 L 6185210,3810590 z M 6702680,3906780 C 6702680,3865200 6731620,3733740 6867720,3733740 C 7003970,3733740 7023130,3841050 7023130,3906780 L 6702680,3906780 z M 7132150,4368280 C 7087330,4379440 7061670,4390710 6992660,4390710 C 6757130,4390710 6699440,4145590 6699440,3977310 L 7146550,3977310 C 7146550,3914820 7146550,3669700 6875760,3669700 C 6653060,3669700 6566460,3828380 6566460,4046160 C 6566460,4326700 6715510,4467600 6943040,4467600 C 7029640,4467600 7069700,4454760 7132150,4437130 L 7132150,4368280 z M 7510290,3687330 L 7625680,3687330 L 7625680,3874800 L 7628920,3874800 C 7675330,3778600 7752220,3669700 7902830,3669700 C 8035840,3669700 8085500,3785080 8085500,3870000 L 8085500,4449960 L 7966990,4449960 L 7966990,3956440 C 7966990,3874800 7966990,3767450 7861250,3767450 C 7701000,3767450 7628920,3975750 7628920,4123160 L 7628920,4449960 L 7510290,4449960 L 7510290,3687330 z M 8497340,4449960 L 8657540,4449960 L 8657540,4289720 L 8497340,4289720 L 8497340,4449960 z M 9229630,3687330 L 9345020,3687330 L 9345020,3874800 L 9348100,3874800 C 9394670,3778600 9471520,3669700 9622160,3669700 C 9755180,3669700 9804800,3785080 9804800,3870000 L 9804800,4449960 L 9686170,4449960 L 9686170,3956440 C 9686170,3874800 9686170,3767450 9580420,3767450 C 9420180,3767450 9348100,3975750 9348100,4123160 L 9348100,4449960 L 9229630,4449960 L 9229630,3687330 z M 10650790,4264210 L 10647670,4264210 C 10573910,4421180 10525810,4467600 10373650,4467600 C 10247110,4467600 10190970,4331500 10190970,4232030 L 10190970,3687330 L 10309600,3687330 L 10309600,4180850 C 10309600,4262490 10343180,4369840 10445730,4369840 C 10585220,4369840 10647670,4161540 10647670,4014130 L 10647670,3687330 L 10766180,3687330 L 10766180,4449960 L 10650790,4449960 L 10650790,4264210 z M 11514540,4461240 C 11476040,4467600 11452050,4467600 11419910,4467600 C 11262900,4467600 11192410,4413140 11192410,4275330 L 11192410,3760970 L 11057840,3760970 L 11057840,3687330 L 11192410,3687330 L 11192410,3507770 L 11311000,3435730 L 11311000,3687330 L 11519340,3687330 L 11519340,3760970 L 11311000,3760970 L 11311000,4212880 C 11311000,4302550 11311000,4390710 11442340,4390710 C 11482400,4390710 11500030,4385910 11514540,4381120 L 11514540,4461240 z M 11772380,4369840 L 12169830,3764210 L 11799720,3764210 L 11799720,3687330 L 12314120,3687330 L 12314120,3764210 L 11910310,4365040 L 12318920,4365040 L 12318920,4449960 L 11772380,4449960 L 11772380,4369840 z M 12753030,3906780 C 12753030,3865200 12781980,3733740 12918070,3733740 C 13054330,3733740 13073520,3841050 13073520,3906780 L 12753030,3906780 z M 13182540,4368280 C 13137690,4379440 13112020,4390710 13043170,4390710 C 12807480,4390710 12749790,4145590 12749790,3977310 L 13196900,3977310 C 13196900,3914820 13196900,3669700 12926110,3669700 C 12703410,3669700 12616930,3828380 12616930,4046160 C 12616930,4326700 12765860,4467600 12993390,4467600 C 13079990,4467600 13120050,4454760 13182540,4437130 L 13182540,4368280 z M 13496470,3687330 L 13611860,3687330 L 13611860,3874800 L 13615100,3874800 C 13661640,3778600 13738520,3669700 13889170,3669700 C 14022140,3669700 14071800,3785080 14071800,3870000 L 14071800,4449960 L 13953180,4449960 L 13953180,3956440 C 13953180,3874800 13953180,3767450 13847390,3767450 C 13687180,3767450 13615100,3975750 13615100,4123160 L 13615100,4449960 L 13496470,4449960 L 13496470,3687330 z M 14483520,4449960 L 14643730,4449960 L 14643730,4289720 L 14483520,4289720 L 14483520,4449960 z "
   style="fill:black;fill-opacity:1"
   id="_107639960" />

   <path
   d="M 16500000,2110600 C 16500000,2343450 16411000,2515250 16232890,2626270 C 16054890,2737140 15807210,2792550 15490000,2792550 C 15308610,2792550 15155720,2783400 15031060,2765050 C 14906360,2746850 14803410,2723870 14722170,2696200 L 14722170,2323020 C 14785620,2356320 14885330,2387070 15021030,2415250 C 15156840,2443480 15290300,2457710 15421750,2457710 C 15606350,2457710 15733570,2436280 15803130,2393100 C 15872660,2350080 15907480,2278160 15907480,2177450 C 15907480,2114000 15889850,2053740 15832320,2007770 C 15777470,1963790 15517910,1893260 15283380,1813140 C 15096470,1746290 14952060,1661930 14849790,1559980 C 14747400,1457990 14696340,1319050 14696340,1142900 C 14696340,974780 14778860,832450 14944020,715940 C 15109020,599600 15353350,541070 15644570,536550 C 15814970,533870 16018790,551060 16131620,570410 C 16244320,589880 16323560,607070 16369260,622150 L 16369260,960830 C 16273630,940640 16178870,922880 16084520,907210 C 15990280,891580 15826120,870950 15719610,870950 C 15568680,870950 15411160,898740 15335000,944430 C 15274630,980580 15240080,1034990 15235120,1094520 C 15227810,1181400 15260110,1231340 15310050,1270840 C 15360100,1310460 15506630,1369150 15749960,1447110 C 15976450,1518520 16255320,1613150 16355870,1718620 C 16453060,1820780 16500000,1959110 16500000,2110600 z M 13718370,2778320 L 14287900,2778320 L 14287900,588720 L 13718370,588720 L 13718370,2778320 z M 13337550,915690 L 12791130,915690 L 12791130,2778320 L 12221600,2778320 L 12221600,915690 L 11659830,915690 L 11659830,588600 L 13337550,588600 L 13337550,915690 z M 10281250,1939360 L 10571230,1132300 L 10880120,1939360 L 10281250,1939360 z M 10893400,588600 L 10364770,588600 L 9517930,2778320 L 9979990,2778320 L 10169820,2254890 L 11000310,2254890 L 11185500,2778320 L 11765300,2778320 L 10893400,588600 L 10893400,588600 z M 9588580,914970 L 9042040,914970 L 9042040,2777440 L 8472510,2777440 L 8472510,914970 L 7910740,914970 L 7910740,587880 L 9588580,587880 L 9588580,914970 L 9588580,914970 z M 7771370,2110040 C 7771370,2342890 7682250,2514690 7504260,2625550 C 7326100,2736420 7078580,2791830 6761370,2791830 C 6579980,2791830 6426970,2782680 6302270,2764490 C 6177730,2746290 6074780,2723310 5993540,2695640 L 5993540,2322300 C 6056990,2355600 6156580,2386350 6292270,2414690 C 6428090,2442920 6561670,2456990 6692960,2456990 C 6877590,2456990 7004810,2435560 7074500,2392540 C 7143870,2349520 7178730,2277600 7178730,2176770 C 7178730,2113280 7161220,2053190 7103690,2007210 C 7048670,1963230 6789280,1892700 6554750,1812420 C 6367840,1745570 6223270,1661250 6121040,1559260 C 6018760,1457430 5967710,1318380 5967710,1142340 C 5967710,974060 6050230,831770 6215230,715380 C 6380390,599040 6624560,540350 6915820,535830 C 7086180,533310 7290000,550380 7402820,569850 C 7515650,589160 7594930,606510 7640510,621590 L 7640510,960110 C 7545000,940080 7450080,922320 7355890,906650 C 7261490,890980 7097490,870270 6990980,870270 C 6840050,870270 6682370,898060 6606200,943750 C 6545990,979860 6511290,1034310 6506370,1093800 C 6499180,1180840 6531320,1230620 6581380,1270280 C 6631310,1309740 6777880,1368550 7021170,1446550 C 7247700,1517800 7526520,1612600 7627240,1718060 C 7724430,1820060 7771370,1958430 7771370,2110040 z M 3004080,2782400 L 5523000,2782400 L 5523000,2404580 L 3004080,2404580 L 3004080,2782400 z M 1939510,2299190 C 1858270,2401020 1737090,2451920 1575770,2451920 L 1069130,2451920 L 1069130,829210 L 1519630,829210 C 1684350,829210 1833160,882540 1928800,1009320 C 2024550,1136260 2105950,1325570 2112430,1614270 C 2112430,1614270 2114550,1661090 2112830,1731620 C 2104790,2020600 2020750,2197360 1939510,2299190 z M 2643460,1570970 C 2630460,1285790 2541350,972940 2378300,784630 C 2215260,596360 1944590,502120 1566290,502120 L 500160,500000 L 500000,2779000 L 1669280,2779000 C 1986330,2779000 2225820,2692840 2387740,2520760 C 2549500,2348520 2636820,2072820 2645700,1753610 C 2645700,1753610 2649810,1712030 2643460,1570970 z "
   style="fill:#a9a9a9"
   id="_112027328" />

   <polygon
   points="3030350,2216950 3030470,739810 3557540,739810 3557540,2216510 3030350,2216950 "
   style="fill:black;fill-opacity:1"
   id="_47013000" />

   <polygon
   points="3990010,2216510 3990130,1085650 4517200,1085650 4517520,2216950 3990010,2216510 "
   style="fill:#d00"
   id="_110950768" />

   <polygon
   points="4970830,2217230 4970830,539670 5498050,539670 5498050,2216670 4970830,2217230 "
   style="fill:#ffce00"
   id="_46752216" />

  </g>

 </g>
  </g>
</svg>
