<?xml version="1.0" encoding="iso-8859-1"?>
<!-- Generator: Adobe Illustrator 19.0.0, SVG Export Plug-In . SVG Version: 6.00 Build 0)  -->
<svg version="1.1" id="Capa_1" xmlns="http://www.w3.org/2000/svg" xmlns:xlink="http://www.w3.org/1999/xlink" x="0px" y="0px"
	 viewBox="0 0 512 512" style="enable-background:new 0 0 512 512;" xml:space="preserve">
<g>
	<g>
		<path d="M296,385.989c-5.52,0-10,4.48-10,10c0,5.52,4.48,10,10,10c5.52,0,10-4.48,10-10C306,390.469,301.52,385.989,296,385.989z"
			/>
	</g>
</g>
<g>
	<g>
		<path d="M482,448.989h-16V201.371c13.954,8.746,32.355,4.755,41.318-9.276c8.871-13.95,4.742-32.531-9.152-41.385L272.104,4.67
			c-9.783-6.219-22.426-6.22-32.271,0.04L13.885,150.677c-13.945,8.887-18.074,27.468-9.188,41.441
			c8.855,13.843,27.31,17.988,41.303,9.25v247.621H30c-16.542,0-30,13.458-30,30v23c0,5.522,4.477,10,10,10h492
			c5.523,0,10-4.478,10-10v-23C512,462.447,498.542,448.989,482,448.989z M35.387,184.422c-4.658,2.951-10.868,1.568-13.828-3.058
			c-2.959-4.655-1.58-10.855,3.127-13.855l225.938-145.96c3.265-2.076,7.485-2.075,10.689-0.04l226.052,146.033
			c4.655,2.967,6.035,9.167,3.087,13.804c-2.95,4.62-9.05,6.067-13.818,3.091L261.429,45.302c-0.091-0.059-0.189-0.099-0.282-0.154
			c-0.236-0.142-0.477-0.274-0.724-0.397c-0.146-0.072-0.29-0.146-0.439-0.211c-0.341-0.149-0.691-0.281-1.051-0.391
			c-0.164-0.05-0.329-0.085-0.495-0.127c-0.23-0.058-0.461-0.109-0.697-0.151c-0.195-0.034-0.388-0.066-0.584-0.089
			c-0.223-0.026-0.45-0.037-0.678-0.048c-0.32-0.015-0.638-0.015-0.958,0c-0.229,0.011-0.457,0.022-0.681,0.048
			c-0.195,0.023-0.387,0.055-0.581,0.089c-0.238,0.042-0.471,0.094-0.703,0.152c-0.164,0.041-0.328,0.076-0.49,0.126
			c-0.361,0.11-0.712,0.243-1.054,0.392c-0.148,0.064-0.291,0.138-0.436,0.21c-0.249,0.123-0.49,0.256-0.727,0.398
			c-0.092,0.055-0.19,0.095-0.281,0.154l-201.36,130.18c0,0-0.001,0-0.001,0.001L35.387,184.422z M446,199.989v249H266v-249H446z
			 M266,179.989V72.073l166.92,107.916H266z M246,72.073V448.99H66V188.446L246,72.073z M492,491.989H20v-13c0-5.514,4.486-10,10-10
			h452c5.514,0,10,4.486,10,10V491.989z"/>
	</g>
</g>
<g>
	<g>
		<path d="M216,225.989H96c-5.523,0-10,4.478-10,10v180c0,5.522,4.477,10,10,10h120c5.523,0,10-4.478,10-10v-180
			C226,230.467,221.523,225.989,216,225.989z M146,405.989h-40v-40h40V405.989z M146,345.989h-40v-40h40V345.989z M146,285.989h-40
			v-40h40V285.989z M206,405.989h-40v-40h40V405.989z M206,345.989h-40v-40h40V345.989z M206,285.989h-40v-40h40V285.989z"/>
	</g>
</g>
<g>
	<g>
		<path d="M416,222.989H296c-5.523,0-10,4.478-10,10v120c0,5.522,4.477,10,10,10h120c5.523,0,10-4.478,10-10v-120
			C426,227.467,421.523,222.989,416,222.989z M346,342.989h-40v-40h40V342.989z M346,282.989h-40v-40h40V282.989z M406,342.989h-40
			v-40h40V342.989z M406,282.989h-40v-40h40V282.989z"/>
	</g>
</g>
<g>
	<g>
		<path d="M416,385.989h-80c-5.523,0-10,4.478-10,10c0,5.522,4.477,10,10,10h80c5.523,0,10-4.478,10-10
			C426,390.467,421.523,385.989,416,385.989z"/>
	</g>
</g>
<g>
</g>
<g>
</g>
<g>
</g>
<g>
</g>
<g>
</g>
<g>
</g>
<g>
</g>
<g>
</g>
<g>
</g>
<g>
</g>
<g>
</g>
<g>
</g>
<g>
</g>
<g>
</g>
<g>
</g>
</svg>
